<mxfile host="app.diagrams.net" modified="2023-03-07T03:12:00.786Z" agent="5.0 (Windows NT 10.0; Win64; x64) AppleWebKit/537.36 (KHTML, like Gecko) Chrome/110.0.0.0 Safari/537.36" etag="-iIYtT1AzV7CjnhnxsO0" version="21.0.2" type="github" pages="4">
  <diagram name="Page-1" id="b5b7bab2-c9e2-2cf4-8b2a-24fd1a2a6d21">
    <mxGraphModel dx="622" dy="525" grid="1" gridSize="10" guides="1" tooltips="1" connect="1" arrows="1" fold="1" page="1" pageScale="1" pageWidth="827" pageHeight="1169" background="none" math="0" shadow="0">
      <root>
        <mxCell id="0" />
        <mxCell id="1" parent="0" />
        <mxCell id="6e0c8c40b5770093-72" value="" style="shape=folder;fontStyle=1;spacingTop=10;tabWidth=194;tabHeight=22;tabPosition=left;html=1;rounded=0;shadow=0;comic=0;labelBackgroundColor=none;strokeWidth=1;fillColor=none;fontFamily=Verdana;fontSize=10;align=center;" parent="1" vertex="1">
          <mxGeometry x="326.5" y="114.5" width="1001" height="940" as="geometry" />
        </mxCell>
        <mxCell id="6e0c8c40b5770093-6" value="" style="group" parent="1" vertex="1" connectable="0">
          <mxGeometry x="465.5" y="174.5" width="130" height="70" as="geometry" />
        </mxCell>
        <mxCell id="6e0c8c40b5770093-4" value="package" style="shape=folder;fontStyle=1;spacingTop=10;tabWidth=50;tabHeight=17;tabPosition=left;html=1;rounded=0;shadow=0;comic=0;labelBackgroundColor=none;strokeWidth=1;fontFamily=Verdana;fontSize=10;align=center;" parent="6e0c8c40b5770093-6" vertex="1">
          <mxGeometry width="130" height="70" as="geometry" />
        </mxCell>
        <mxCell id="6e0c8c40b5770093-5" value="" style="triangle;whiteSpace=wrap;html=1;rounded=0;shadow=0;comic=0;labelBackgroundColor=none;strokeWidth=1;fontFamily=Verdana;fontSize=10;align=center;rotation=-90;" parent="6e0c8c40b5770093-6" vertex="1">
          <mxGeometry x="100" y="25" width="15" height="20" as="geometry" />
        </mxCell>
        <mxCell id="6e0c8c40b5770093-7" value="" style="group" parent="1" vertex="1" connectable="0">
          <mxGeometry x="765.5" y="174.5" width="130" height="70" as="geometry" />
        </mxCell>
        <mxCell id="6e0c8c40b5770093-8" value="package" style="shape=folder;fontStyle=1;spacingTop=10;tabWidth=50;tabHeight=17;tabPosition=left;html=1;rounded=0;shadow=0;comic=0;labelBackgroundColor=none;strokeWidth=1;fontFamily=Verdana;fontSize=10;align=center;" parent="6e0c8c40b5770093-7" vertex="1">
          <mxGeometry width="130" height="70" as="geometry" />
        </mxCell>
        <mxCell id="6e0c8c40b5770093-9" value="" style="triangle;whiteSpace=wrap;html=1;rounded=0;shadow=0;comic=0;labelBackgroundColor=none;strokeWidth=1;fontFamily=Verdana;fontSize=10;align=center;rotation=-90;" parent="6e0c8c40b5770093-7" vertex="1">
          <mxGeometry x="100" y="25" width="15" height="20" as="geometry" />
        </mxCell>
        <mxCell id="6e0c8c40b5770093-18" value="" style="group" parent="1" vertex="1" connectable="0">
          <mxGeometry x="361.5" y="294.5" width="280" height="130" as="geometry" />
        </mxCell>
        <mxCell id="6e0c8c40b5770093-11" value="" style="shape=folder;fontStyle=1;spacingTop=10;tabWidth=123;tabHeight=24;tabPosition=left;html=1;rounded=0;shadow=0;comic=0;labelBackgroundColor=none;strokeWidth=1;fontFamily=Verdana;fontSize=10;align=center;" parent="6e0c8c40b5770093-18" vertex="1">
          <mxGeometry width="280" height="130" as="geometry" />
        </mxCell>
        <mxCell id="6e0c8c40b5770093-13" value="" style="triangle;whiteSpace=wrap;html=1;rounded=0;shadow=0;comic=0;labelBackgroundColor=none;strokeWidth=1;fontFamily=Verdana;fontSize=10;align=center;rotation=-90;" parent="6e0c8c40b5770093-18" vertex="1">
          <mxGeometry x="96" y="2" width="15" height="20" as="geometry" />
        </mxCell>
        <mxCell id="6e0c8c40b5770093-15" value="package" style="shape=folder;fontStyle=1;spacingTop=10;tabWidth=50;tabHeight=17;tabPosition=left;html=1;rounded=0;shadow=0;comic=0;labelBackgroundColor=none;strokeWidth=1;fontFamily=Verdana;fontSize=10;align=center;" parent="6e0c8c40b5770093-18" vertex="1">
          <mxGeometry x="18" y="40" width="112" height="70" as="geometry" />
        </mxCell>
        <mxCell id="6e0c8c40b5770093-17" value="package" style="shape=folder;fontStyle=1;spacingTop=10;tabWidth=50;tabHeight=17;tabPosition=left;html=1;rounded=0;shadow=0;comic=0;labelBackgroundColor=none;strokeWidth=1;fontFamily=Verdana;fontSize=10;align=center;" parent="6e0c8c40b5770093-18" vertex="1">
          <mxGeometry x="148" y="40" width="112" height="70" as="geometry" />
        </mxCell>
        <mxCell id="6e0c8c40b5770093-19" value="" style="group" parent="1" vertex="1" connectable="0">
          <mxGeometry x="685.5" y="298.5" width="280" height="130" as="geometry" />
        </mxCell>
        <mxCell id="6e0c8c40b5770093-20" value="" style="shape=folder;fontStyle=1;spacingTop=10;tabWidth=123;tabHeight=24;tabPosition=left;html=1;rounded=0;shadow=0;comic=0;labelBackgroundColor=none;strokeWidth=1;fontFamily=Verdana;fontSize=10;align=center;" parent="6e0c8c40b5770093-19" vertex="1">
          <mxGeometry width="280" height="130" as="geometry" />
        </mxCell>
        <mxCell id="6e0c8c40b5770093-21" value="" style="triangle;whiteSpace=wrap;html=1;rounded=0;shadow=0;comic=0;labelBackgroundColor=none;strokeWidth=1;fontFamily=Verdana;fontSize=10;align=center;rotation=-90;" parent="6e0c8c40b5770093-19" vertex="1">
          <mxGeometry x="96" y="2" width="15" height="20" as="geometry" />
        </mxCell>
        <mxCell id="6e0c8c40b5770093-22" value="package" style="shape=folder;fontStyle=1;spacingTop=10;tabWidth=50;tabHeight=17;tabPosition=left;html=1;rounded=0;shadow=0;comic=0;labelBackgroundColor=none;strokeWidth=1;fontFamily=Verdana;fontSize=10;align=center;" parent="6e0c8c40b5770093-19" vertex="1">
          <mxGeometry x="18" y="40" width="112" height="70" as="geometry" />
        </mxCell>
        <mxCell id="6e0c8c40b5770093-23" value="package" style="shape=folder;fontStyle=1;spacingTop=10;tabWidth=50;tabHeight=17;tabPosition=left;html=1;rounded=0;shadow=0;comic=0;labelBackgroundColor=none;strokeWidth=1;fontFamily=Verdana;fontSize=10;align=center;" parent="6e0c8c40b5770093-19" vertex="1">
          <mxGeometry x="148" y="40" width="112" height="70" as="geometry" />
        </mxCell>
        <mxCell id="6e0c8c40b5770093-30" value="" style="group" parent="1" vertex="1" connectable="0">
          <mxGeometry x="1045.5" y="294.5" width="230" height="480" as="geometry" />
        </mxCell>
        <mxCell id="6e0c8c40b5770093-24" value="" style="group" parent="6e0c8c40b5770093-30" vertex="1" connectable="0">
          <mxGeometry width="230" height="480" as="geometry" />
        </mxCell>
        <mxCell id="6e0c8c40b5770093-25" value="" style="shape=folder;fontStyle=1;spacingTop=10;tabWidth=123;tabHeight=24;tabPosition=left;html=1;rounded=0;shadow=0;comic=0;labelBackgroundColor=none;strokeWidth=1;fontFamily=Verdana;fontSize=10;align=center;" parent="6e0c8c40b5770093-24" vertex="1">
          <mxGeometry width="230" height="480" as="geometry" />
        </mxCell>
        <mxCell id="6e0c8c40b5770093-29" value="" style="triangle;whiteSpace=wrap;html=1;rounded=0;shadow=0;comic=0;labelBackgroundColor=none;strokeWidth=1;fontFamily=Verdana;fontSize=10;align=center;rotation=-90;" parent="6e0c8c40b5770093-24" vertex="1">
          <mxGeometry x="100" y="2" width="15" height="20" as="geometry" />
        </mxCell>
        <mxCell id="6e0c8c40b5770093-27" value="package" style="shape=folder;fontStyle=1;spacingTop=10;tabWidth=50;tabHeight=17;tabPosition=left;html=1;rounded=0;shadow=0;comic=0;labelBackgroundColor=none;strokeWidth=1;fontFamily=Verdana;fontSize=10;align=center;" parent="6e0c8c40b5770093-24" vertex="1">
          <mxGeometry x="59" y="79" width="112" height="70" as="geometry" />
        </mxCell>
        <mxCell id="6e0c8c40b5770093-31" value="package" style="shape=folder;fontStyle=1;spacingTop=10;tabWidth=50;tabHeight=17;tabPosition=left;html=1;rounded=0;shadow=0;comic=0;labelBackgroundColor=none;strokeWidth=1;fontFamily=Verdana;fontSize=10;align=center;" parent="6e0c8c40b5770093-24" vertex="1">
          <mxGeometry x="59" y="205" width="112" height="70" as="geometry" />
        </mxCell>
        <mxCell id="6e0c8c40b5770093-28" value="package" style="shape=folder;fontStyle=1;spacingTop=10;tabWidth=50;tabHeight=17;tabPosition=left;html=1;rounded=0;shadow=0;comic=0;labelBackgroundColor=none;strokeWidth=1;fontFamily=Verdana;fontSize=10;align=center;" parent="6e0c8c40b5770093-24" vertex="1">
          <mxGeometry x="59" y="340" width="112" height="70" as="geometry" />
        </mxCell>
        <mxCell id="6e0c8c40b5770093-67" style="edgeStyle=none;rounded=0;html=1;entryX=0.43;entryY=0.173;entryPerimeter=0;dashed=1;labelBackgroundColor=none;startFill=0;endArrow=open;endFill=0;endSize=10;fontFamily=Verdana;fontSize=10;" parent="1" source="6e0c8c40b5770093-33" target="6e0c8c40b5770093-47" edge="1">
          <mxGeometry relative="1" as="geometry" />
        </mxCell>
        <mxCell id="6e0c8c40b5770093-71" style="edgeStyle=elbowEdgeStyle;rounded=0;html=1;dashed=1;labelBackgroundColor=none;startFill=0;endArrow=open;endFill=0;endSize=10;fontFamily=Verdana;fontSize=10;elbow=vertical;" parent="1" source="6e0c8c40b5770093-33" target="6e0c8c40b5770093-25" edge="1">
          <mxGeometry relative="1" as="geometry" />
        </mxCell>
        <mxCell id="6e0c8c40b5770093-33" value="" style="shape=folder;fontStyle=1;spacingTop=10;tabWidth=123;tabHeight=24;tabPosition=left;html=1;rounded=0;shadow=0;comic=0;labelBackgroundColor=none;strokeColor=#000000;strokeWidth=1;fillColor=#ffffff;fontFamily=Verdana;fontSize=10;fontColor=#000000;align=center;" parent="1" vertex="1">
          <mxGeometry x="440.5" y="474.5" width="515" height="240" as="geometry" />
        </mxCell>
        <mxCell id="6e0c8c40b5770093-64" style="edgeStyle=elbowEdgeStyle;rounded=0;html=1;entryX=0.559;entryY=0.251;entryPerimeter=0;dashed=1;labelBackgroundColor=none;startFill=0;endArrow=open;endFill=0;endSize=10;fontFamily=Verdana;fontSize=10;" parent="1" source="6e0c8c40b5770093-42" target="6e0c8c40b5770093-44" edge="1">
          <mxGeometry relative="1" as="geometry" />
        </mxCell>
        <mxCell id="6e0c8c40b5770093-65" style="edgeStyle=none;rounded=0;html=1;dashed=1;labelBackgroundColor=none;startFill=0;endArrow=open;endFill=0;endSize=10;fontFamily=Verdana;fontSize=10;entryX=-0.003;entryY=0.411;entryPerimeter=0;" parent="1" source="6e0c8c40b5770093-42" target="6e0c8c40b5770093-45" edge="1">
          <mxGeometry relative="1" as="geometry" />
        </mxCell>
        <mxCell id="6e0c8c40b5770093-66" style="edgeStyle=none;rounded=0;html=1;dashed=1;labelBackgroundColor=none;startFill=0;endArrow=open;endFill=0;endSize=10;fontFamily=Verdana;fontSize=10;entryX=1.013;entryY=0.444;entryPerimeter=0;" parent="1" source="6e0c8c40b5770093-42" target="6e0c8c40b5770093-43" edge="1">
          <mxGeometry relative="1" as="geometry" />
        </mxCell>
        <mxCell id="6e0c8c40b5770093-42" value="package" style="shape=folder;fontStyle=1;spacingTop=10;tabWidth=50;tabHeight=17;tabPosition=left;html=1;rounded=0;shadow=0;comic=0;labelBackgroundColor=none;strokeColor=#000000;strokeWidth=1;fillColor=#ffffff;fontFamily=Verdana;fontSize=10;fontColor=#000000;align=center;" parent="1" vertex="1">
          <mxGeometry x="647.5" y="524.5" width="112" height="70" as="geometry" />
        </mxCell>
        <mxCell id="6e0c8c40b5770093-43" value="package" style="shape=folder;fontStyle=1;spacingTop=10;tabWidth=50;tabHeight=17;tabPosition=left;html=1;rounded=0;shadow=0;comic=0;labelBackgroundColor=none;strokeColor=#000000;strokeWidth=1;fillColor=#ffffff;fontFamily=Verdana;fontSize=10;fontColor=#000000;align=center;" parent="1" vertex="1">
          <mxGeometry x="483.5" y="624.5" width="112" height="70" as="geometry" />
        </mxCell>
        <mxCell id="6e0c8c40b5770093-44" value="package" style="shape=folder;fontStyle=1;spacingTop=10;tabWidth=50;tabHeight=17;tabPosition=left;html=1;rounded=0;shadow=0;comic=0;labelBackgroundColor=none;strokeColor=#000000;strokeWidth=1;fillColor=#ffffff;fontFamily=Verdana;fontSize=10;fontColor=#000000;align=center;" parent="1" vertex="1">
          <mxGeometry x="647.5" y="624.5" width="112" height="70" as="geometry" />
        </mxCell>
        <mxCell id="6e0c8c40b5770093-45" value="package" style="shape=folder;fontStyle=1;spacingTop=10;tabWidth=50;tabHeight=17;tabPosition=left;html=1;rounded=0;shadow=0;comic=0;labelBackgroundColor=none;strokeColor=#000000;strokeWidth=1;fillColor=#ffffff;fontFamily=Verdana;fontSize=10;fontColor=#000000;align=center;" parent="1" vertex="1">
          <mxGeometry x="799.5" y="624.5" width="112" height="70" as="geometry" />
        </mxCell>
        <mxCell id="6e0c8c40b5770093-68" style="edgeStyle=elbowEdgeStyle;rounded=0;html=1;entryX=0.628;entryY=0.26;entryPerimeter=0;dashed=1;labelBackgroundColor=none;startFill=0;endArrow=open;endFill=0;endSize=10;fontFamily=Verdana;fontSize=10;" parent="1" source="6e0c8c40b5770093-47" target="6e0c8c40b5770093-53" edge="1">
          <mxGeometry relative="1" as="geometry" />
        </mxCell>
        <mxCell id="6e0c8c40b5770093-69" style="edgeStyle=elbowEdgeStyle;rounded=0;html=1;entryX=0.643;entryY=0.246;entryPerimeter=0;dashed=1;labelBackgroundColor=none;startFill=0;endArrow=open;endFill=0;endSize=10;fontFamily=Verdana;fontSize=10;" parent="1" source="6e0c8c40b5770093-47" target="6e0c8c40b5770093-56" edge="1">
          <mxGeometry relative="1" as="geometry" />
        </mxCell>
        <mxCell id="6e0c8c40b5770093-70" style="edgeStyle=none;rounded=0;html=1;dashed=1;labelBackgroundColor=none;startFill=0;endArrow=open;endFill=0;endSize=10;fontFamily=Verdana;fontSize=10;exitX=1.003;exitY=0.363;exitPerimeter=0;" parent="1" source="6e0c8c40b5770093-47" target="6e0c8c40b5770093-25" edge="1">
          <mxGeometry relative="1" as="geometry" />
        </mxCell>
        <mxCell id="6e0c8c40b5770093-47" value="" style="shape=folder;fontStyle=1;spacingTop=10;tabWidth=123;tabHeight=24;tabPosition=left;html=1;rounded=0;shadow=0;comic=0;labelBackgroundColor=none;strokeWidth=1;fontFamily=Verdana;fontSize=10;align=center;" parent="1" vertex="1">
          <mxGeometry x="553.5" y="774.5" width="332" height="130" as="geometry" />
        </mxCell>
        <mxCell id="6e0c8c40b5770093-48" value="" style="triangle;whiteSpace=wrap;html=1;rounded=0;shadow=0;comic=0;labelBackgroundColor=none;strokeWidth=1;fontFamily=Verdana;fontSize=10;align=center;rotation=-90;" parent="1" vertex="1">
          <mxGeometry x="649.5" y="776.5" width="15" height="20" as="geometry" />
        </mxCell>
        <mxCell id="6e0c8c40b5770093-49" value="package" style="shape=folder;fontStyle=1;spacingTop=10;tabWidth=50;tabHeight=17;tabPosition=left;html=1;rounded=0;shadow=0;comic=0;labelBackgroundColor=none;strokeWidth=1;fontFamily=Verdana;fontSize=10;align=center;" parent="1" vertex="1">
          <mxGeometry x="571.5" y="814.5" width="112" height="70" as="geometry" />
        </mxCell>
        <mxCell id="6e0c8c40b5770093-50" value="package" style="shape=folder;fontStyle=1;spacingTop=10;tabWidth=50;tabHeight=17;tabPosition=left;html=1;rounded=0;shadow=0;comic=0;labelBackgroundColor=none;strokeWidth=1;fontFamily=Verdana;fontSize=10;align=center;" parent="1" vertex="1">
          <mxGeometry x="740.5" y="814.5" width="112" height="70" as="geometry" />
        </mxCell>
        <mxCell id="6e0c8c40b5770093-51" value="" style="triangle;whiteSpace=wrap;html=1;rounded=0;shadow=0;comic=0;labelBackgroundColor=none;strokeColor=#000000;strokeWidth=1;fillColor=#ffffff;fontFamily=Verdana;fontSize=10;fontColor=#000000;align=center;rotation=-90;" parent="1" vertex="1">
          <mxGeometry x="538.5" y="476.5" width="15" height="20" as="geometry" />
        </mxCell>
        <mxCell id="6e0c8c40b5770093-52" value="" style="group" parent="1" vertex="1" connectable="0">
          <mxGeometry x="576.5" y="954.5694795496323" width="130" height="70" as="geometry" />
        </mxCell>
        <mxCell id="6e0c8c40b5770093-53" value="package" style="shape=folder;fontStyle=1;spacingTop=10;tabWidth=50;tabHeight=17;tabPosition=left;html=1;rounded=0;shadow=0;comic=0;labelBackgroundColor=none;strokeWidth=1;fontFamily=Verdana;fontSize=10;align=center;" parent="6e0c8c40b5770093-52" vertex="1">
          <mxGeometry width="130" height="70" as="geometry" />
        </mxCell>
        <mxCell id="6e0c8c40b5770093-54" value="" style="triangle;whiteSpace=wrap;html=1;rounded=0;shadow=0;comic=0;labelBackgroundColor=none;strokeWidth=1;fontFamily=Verdana;fontSize=10;align=center;rotation=-90;" parent="6e0c8c40b5770093-52" vertex="1">
          <mxGeometry x="100" y="25" width="15" height="20" as="geometry" />
        </mxCell>
        <mxCell id="6e0c8c40b5770093-55" value="" style="group" parent="1" vertex="1" connectable="0">
          <mxGeometry x="743.5" y="954.5694795496323" width="130" height="70" as="geometry" />
        </mxCell>
        <mxCell id="6e0c8c40b5770093-56" value="package" style="shape=folder;fontStyle=1;spacingTop=10;tabWidth=50;tabHeight=17;tabPosition=left;html=1;rounded=0;shadow=0;comic=0;labelBackgroundColor=none;strokeWidth=1;fontFamily=Verdana;fontSize=10;align=center;" parent="6e0c8c40b5770093-55" vertex="1">
          <mxGeometry width="130" height="70" as="geometry" />
        </mxCell>
        <mxCell id="6e0c8c40b5770093-57" value="" style="triangle;whiteSpace=wrap;html=1;rounded=0;shadow=0;comic=0;labelBackgroundColor=none;strokeWidth=1;fontFamily=Verdana;fontSize=10;align=center;rotation=-90;" parent="6e0c8c40b5770093-55" vertex="1">
          <mxGeometry x="100" y="25" width="15" height="20" as="geometry" />
        </mxCell>
        <mxCell id="6e0c8c40b5770093-58" style="rounded=0;html=1;dashed=1;labelBackgroundColor=none;startFill=0;endArrow=open;endFill=0;endSize=10;fontFamily=Verdana;fontSize=10;entryX=0.592;entryY=0.2;entryPerimeter=0;edgeStyle=elbowEdgeStyle;" parent="1" source="6e0c8c40b5770093-4" target="6e0c8c40b5770093-11" edge="1">
          <mxGeometry relative="1" as="geometry" />
        </mxCell>
        <mxCell id="6e0c8c40b5770093-59" style="rounded=0;html=1;dashed=1;labelBackgroundColor=none;startFill=0;endArrow=open;endFill=0;endSize=10;fontFamily=Verdana;fontSize=10;entryX=0.592;entryY=0.2;entryPerimeter=0;edgeStyle=elbowEdgeStyle;" parent="1" edge="1">
          <mxGeometry relative="1" as="geometry">
            <mxPoint x="843.3275862068965" y="244.5" as="sourcePoint" />
            <mxPoint x="843.3275862068965" y="320.84482758620686" as="targetPoint" />
          </mxGeometry>
        </mxCell>
        <mxCell id="6e0c8c40b5770093-60" style="rounded=0;html=1;entryX=0.452;entryY=0.1;entryPerimeter=0;dashed=1;labelBackgroundColor=none;startFill=0;endArrow=open;endFill=0;endSize=10;fontFamily=Verdana;fontSize=10;" parent="1" source="6e0c8c40b5770093-11" target="6e0c8c40b5770093-33" edge="1">
          <mxGeometry relative="1" as="geometry" />
        </mxCell>
        <mxCell id="6e0c8c40b5770093-61" style="edgeStyle=none;rounded=0;html=1;entryX=0.69;entryY=0.102;entryPerimeter=0;dashed=1;labelBackgroundColor=none;startFill=0;endArrow=open;endFill=0;endSize=10;fontFamily=Verdana;fontSize=10;" parent="1" source="6e0c8c40b5770093-20" target="6e0c8c40b5770093-33" edge="1">
          <mxGeometry relative="1" as="geometry" />
        </mxCell>
        <mxCell id="6e0c8c40b5770093-62" style="edgeStyle=none;rounded=0;html=1;dashed=1;labelBackgroundColor=none;startFill=0;endArrow=open;endFill=0;endSize=10;fontFamily=Verdana;fontSize=10;exitX=1.002;exitY=0.668;exitPerimeter=0;" parent="1" source="6e0c8c40b5770093-20" target="6e0c8c40b5770093-25" edge="1">
          <mxGeometry relative="1" as="geometry" />
        </mxCell>
        <mxCell id="6e0c8c40b5770093-63" style="edgeStyle=orthogonalEdgeStyle;rounded=0;html=1;dashed=1;labelBackgroundColor=none;startFill=0;endArrow=open;endFill=0;endSize=10;fontFamily=Verdana;fontSize=10;" parent="1" source="6e0c8c40b5770093-11" target="6e0c8c40b5770093-25" edge="1">
          <mxGeometry relative="1" as="geometry">
            <Array as="points">
              <mxPoint x="665.5" y="359.5" />
              <mxPoint x="665.5" y="464.5" />
            </Array>
          </mxGeometry>
        </mxCell>
        <mxCell id="6e0c8c40b5770093-73" value="&amp;lt;&amp;lt;model&amp;gt;&amp;gt;" style="text;html=1;align=left;verticalAlign=top;spacingTop=-4;fontSize=10;fontFamily=Verdana" parent="1" vertex="1">
          <mxGeometry x="327.5" y="114.5" width="130" height="20" as="geometry" />
        </mxCell>
      </root>
    </mxGraphModel>
  </diagram>
  <diagram id="4VaUR7ETAoKFoxgm06S1" name="페이지-2">
    <mxGraphModel dx="1050" dy="541" grid="1" gridSize="10" guides="1" tooltips="1" connect="1" arrows="1" fold="1" page="1" pageScale="1" pageWidth="827" pageHeight="1169" math="0" shadow="0">
      <root>
        <mxCell id="0" />
        <mxCell id="1" parent="0" />
        <mxCell id="gS1DAKYHuApnkBLDBArM-1" value="Pool" style="swimlane;childLayout=stackLayout;resizeParent=1;resizeParentMax=0;startSize=20;html=1;" vertex="1" parent="1">
          <mxGeometry x="230.00000000000045" y="150" width="360" height="480" as="geometry" />
        </mxCell>
        <mxCell id="gS1DAKYHuApnkBLDBArM-2" value="Lane 1" style="swimlane;startSize=20;html=1;" vertex="1" parent="gS1DAKYHuApnkBLDBArM-1">
          <mxGeometry y="20" width="120" height="460" as="geometry" />
        </mxCell>
        <mxCell id="gS1DAKYHuApnkBLDBArM-3" value="Lane 2" style="swimlane;startSize=20;html=1;" vertex="1" parent="gS1DAKYHuApnkBLDBArM-1">
          <mxGeometry x="120" y="20" width="120" height="460" as="geometry" />
        </mxCell>
        <mxCell id="gS1DAKYHuApnkBLDBArM-4" value="Lane 3" style="swimlane;startSize=20;html=1;" vertex="1" parent="gS1DAKYHuApnkBLDBArM-1">
          <mxGeometry x="240" y="20" width="120" height="460" as="geometry" />
        </mxCell>
      </root>
    </mxGraphModel>
  </diagram>
  <diagram id="iSezp-2p_AWF42wAafGR" name="페이지-3">
    <mxGraphModel dx="2140" dy="676" grid="1" gridSize="10" guides="1" tooltips="1" connect="1" arrows="1" fold="1" page="1" pageScale="1" pageWidth="827" pageHeight="1169" math="0" shadow="0">
      <root>
        <mxCell id="0" />
        <mxCell id="1" parent="0" />
        <mxCell id="-b4267xsxqeD690nfUEc-46" style="edgeStyle=orthogonalEdgeStyle;rounded=0;orthogonalLoop=1;jettySize=auto;html=1;strokeWidth=3;endArrow=none;endFill=0;" edge="1" parent="1" source="-b4267xsxqeD690nfUEc-1">
          <mxGeometry relative="1" as="geometry">
            <mxPoint x="160" y="215" as="targetPoint" />
            <Array as="points">
              <mxPoint x="160" y="130" />
              <mxPoint x="160" y="130" />
            </Array>
          </mxGeometry>
        </mxCell>
        <mxCell id="-b4267xsxqeD690nfUEc-48" value="" style="edgeStyle=orthogonalEdgeStyle;rounded=0;orthogonalLoop=1;jettySize=auto;html=1;endArrow=oval;endFill=1;" edge="1" parent="1" source="-b4267xsxqeD690nfUEc-1" target="-b4267xsxqeD690nfUEc-47">
          <mxGeometry relative="1" as="geometry" />
        </mxCell>
        <mxCell id="-b4267xsxqeD690nfUEc-56" value="" style="edgeStyle=orthogonalEdgeStyle;rounded=0;orthogonalLoop=1;jettySize=auto;html=1;" edge="1" parent="1" source="-b4267xsxqeD690nfUEc-1" target="-b4267xsxqeD690nfUEc-55">
          <mxGeometry relative="1" as="geometry" />
        </mxCell>
        <mxCell id="_WVnS3khFdctkwH4YEv5-14" value="" style="edgeStyle=orthogonalEdgeStyle;rounded=0;orthogonalLoop=1;jettySize=auto;html=1;endArrow=oval;endFill=1;" edge="1" parent="1" source="-b4267xsxqeD690nfUEc-1" target="_WVnS3khFdctkwH4YEv5-13">
          <mxGeometry relative="1" as="geometry" />
        </mxCell>
        <mxCell id="-b4267xsxqeD690nfUEc-1" value="&lt;font style=&quot;font-size: 20px;&quot;&gt;홈&lt;/font&gt;" style="rounded=0;whiteSpace=wrap;html=1;absoluteArcSize=1;arcSize=14;strokeWidth=2;flipH=1;fontSize=20;fillColor=#0050ef;strokeColor=#001DBC;fontColor=#ffffff;" vertex="1" parent="1">
          <mxGeometry x="90" y="30" width="140" height="50" as="geometry" />
        </mxCell>
        <mxCell id="-b4267xsxqeD690nfUEc-2" value="의약품 검색" style="rounded=0;whiteSpace=wrap;html=1;absoluteArcSize=1;arcSize=14;strokeWidth=2;flipH=1;fontSize=20;" vertex="1" parent="1">
          <mxGeometry x="-740" y="190" width="140" height="50" as="geometry" />
        </mxCell>
        <mxCell id="-b4267xsxqeD690nfUEc-44" style="edgeStyle=orthogonalEdgeStyle;rounded=0;orthogonalLoop=1;jettySize=auto;html=1;entryX=1;entryY=0.5;entryDx=0;entryDy=0;startArrow=none;startFill=0;endArrow=none;endFill=0;strokeWidth=4;" edge="1" parent="1" source="-b4267xsxqeD690nfUEc-3" target="-b4267xsxqeD690nfUEc-2">
          <mxGeometry relative="1" as="geometry">
            <mxPoint x="-70" y="300" as="sourcePoint" />
            <Array as="points" />
          </mxGeometry>
        </mxCell>
        <mxCell id="-b4267xsxqeD690nfUEc-3" value="이미지 검색" style="rounded=0;whiteSpace=wrap;html=1;absoluteArcSize=1;arcSize=14;strokeWidth=2;flipH=1;fontSize=20;" vertex="1" parent="1">
          <mxGeometry x="-465" y="190" width="140" height="50" as="geometry" />
        </mxCell>
        <mxCell id="-b4267xsxqeD690nfUEc-38" style="edgeStyle=orthogonalEdgeStyle;rounded=0;orthogonalLoop=1;jettySize=auto;html=1;entryX=0.5;entryY=0;entryDx=0;entryDy=0;endArrow=classic;endFill=1;startArrow=none;startFill=0;strokeWidth=1;" edge="1" parent="1" source="-b4267xsxqeD690nfUEc-4" target="-b4267xsxqeD690nfUEc-35">
          <mxGeometry relative="1" as="geometry">
            <Array as="points">
              <mxPoint x="320" y="370" />
              <mxPoint x="233" y="370" />
            </Array>
          </mxGeometry>
        </mxCell>
        <mxCell id="-b4267xsxqeD690nfUEc-42" style="edgeStyle=orthogonalEdgeStyle;rounded=0;orthogonalLoop=1;jettySize=auto;html=1;exitX=0.5;exitY=1;exitDx=0;exitDy=0;entryX=0.5;entryY=0;entryDx=0;entryDy=0;" edge="1" parent="1" source="-b4267xsxqeD690nfUEc-4" target="-b4267xsxqeD690nfUEc-37">
          <mxGeometry relative="1" as="geometry">
            <Array as="points">
              <mxPoint x="320" y="370" />
              <mxPoint x="610" y="370" />
            </Array>
          </mxGeometry>
        </mxCell>
        <mxCell id="-b4267xsxqeD690nfUEc-43" style="edgeStyle=orthogonalEdgeStyle;rounded=0;orthogonalLoop=1;jettySize=auto;html=1;startArrow=none;startFill=0;endArrow=none;endFill=0;strokeWidth=4;entryX=1;entryY=0.5;entryDx=0;entryDy=0;" edge="1" parent="1" source="-b4267xsxqeD690nfUEc-4" target="_WVnS3khFdctkwH4YEv5-7">
          <mxGeometry relative="1" as="geometry" />
        </mxCell>
        <mxCell id="-b4267xsxqeD690nfUEc-45" style="edgeStyle=orthogonalEdgeStyle;rounded=0;orthogonalLoop=1;jettySize=auto;html=1;" edge="1" parent="1" source="-b4267xsxqeD690nfUEc-4" target="-b4267xsxqeD690nfUEc-33">
          <mxGeometry relative="1" as="geometry">
            <Array as="points">
              <mxPoint x="320" y="370" />
              <mxPoint x="50" y="370" />
            </Array>
          </mxGeometry>
        </mxCell>
        <mxCell id="-b4267xsxqeD690nfUEc-70" style="edgeStyle=orthogonalEdgeStyle;rounded=0;orthogonalLoop=1;jettySize=auto;html=1;entryX=0.5;entryY=0;entryDx=0;entryDy=0;" edge="1" parent="1" source="-b4267xsxqeD690nfUEc-4" target="-b4267xsxqeD690nfUEc-36">
          <mxGeometry relative="1" as="geometry">
            <Array as="points">
              <mxPoint x="320" y="370" />
              <mxPoint x="417" y="370" />
            </Array>
          </mxGeometry>
        </mxCell>
        <mxCell id="-b4267xsxqeD690nfUEc-4" value="고객센터" style="rounded=0;whiteSpace=wrap;html=1;absoluteArcSize=1;arcSize=14;strokeWidth=2;flipH=1;fontSize=20;" vertex="1" parent="1">
          <mxGeometry x="250" y="190" width="140" height="50" as="geometry" />
        </mxCell>
        <mxCell id="-b4267xsxqeD690nfUEc-33" value="공지사항" style="rounded=1;whiteSpace=wrap;html=1;absoluteArcSize=1;arcSize=14;strokeWidth=2;flipH=0;fontSize=20;strokeColor=#666666;flipV=0;" vertex="1" parent="1">
          <mxGeometry x="-20" y="490" width="140" height="50" as="geometry" />
        </mxCell>
        <mxCell id="-b4267xsxqeD690nfUEc-35" value="건의사항" style="rounded=1;whiteSpace=wrap;html=1;absoluteArcSize=1;arcSize=14;strokeWidth=2;flipH=0;fontSize=20;strokeColor=#666666;flipV=0;" vertex="1" parent="1">
          <mxGeometry x="163" y="490" width="140" height="50" as="geometry" />
        </mxCell>
        <mxCell id="-b4267xsxqeD690nfUEc-36" value="리뷰게시판" style="rounded=1;whiteSpace=wrap;html=1;absoluteArcSize=1;arcSize=14;strokeWidth=2;flipH=0;fontSize=20;strokeColor=#666666;flipV=0;" vertex="1" parent="1">
          <mxGeometry x="347" y="490" width="140" height="50" as="geometry" />
        </mxCell>
        <mxCell id="-b4267xsxqeD690nfUEc-50" value="" style="edgeStyle=orthogonalEdgeStyle;rounded=0;orthogonalLoop=1;jettySize=auto;html=1;" edge="1" parent="1" source="-b4267xsxqeD690nfUEc-37" target="-b4267xsxqeD690nfUEc-49">
          <mxGeometry relative="1" as="geometry" />
        </mxCell>
        <mxCell id="-b4267xsxqeD690nfUEc-37" value="마이페이지" style="rounded=1;whiteSpace=wrap;html=1;absoluteArcSize=1;arcSize=14;strokeWidth=2;flipH=0;fontSize=20;strokeColor=#666666;aspect=fixed;flipV=0;" vertex="1" parent="1">
          <mxGeometry x="540" y="490" width="140" height="50" as="geometry" />
        </mxCell>
        <mxCell id="-b4267xsxqeD690nfUEc-47" value="&lt;b&gt;라이브 채팅&lt;/b&gt;" style="rounded=1;whiteSpace=wrap;html=1;fontSize=20;arcSize=14;strokeWidth=2;fillColor=#fff2cc;strokeColor=#d6b656;" vertex="1" parent="1">
          <mxGeometry x="1080" y="30" width="140" height="50" as="geometry" />
        </mxCell>
        <mxCell id="_WVnS3khFdctkwH4YEv5-9" style="edgeStyle=orthogonalEdgeStyle;rounded=0;orthogonalLoop=1;jettySize=auto;html=1;endArrow=none;endFill=0;" edge="1" parent="1" source="-b4267xsxqeD690nfUEc-49" target="-b4267xsxqeD690nfUEc-51">
          <mxGeometry relative="1" as="geometry" />
        </mxCell>
        <mxCell id="-b4267xsxqeD690nfUEc-49" value="" style="rounded=1;whiteSpace=wrap;html=1;fontSize=20;strokeColor=#666666;arcSize=14;strokeWidth=2;aspect=fixed;" vertex="1" parent="1">
          <mxGeometry x="540" y="680" width="140" height="50" as="geometry" />
        </mxCell>
        <mxCell id="_WVnS3khFdctkwH4YEv5-10" value="" style="edgeStyle=orthogonalEdgeStyle;rounded=0;orthogonalLoop=1;jettySize=auto;html=1;endArrow=none;endFill=0;" edge="1" parent="1" source="-b4267xsxqeD690nfUEc-51" target="-b4267xsxqeD690nfUEc-52">
          <mxGeometry relative="1" as="geometry" />
        </mxCell>
        <mxCell id="-b4267xsxqeD690nfUEc-51" value="" style="rounded=1;whiteSpace=wrap;html=1;fontSize=20;strokeColor=#666666;arcSize=14;strokeWidth=2;aspect=fixed;" vertex="1" parent="1">
          <mxGeometry x="710" y="680" width="140" height="50" as="geometry" />
        </mxCell>
        <mxCell id="_WVnS3khFdctkwH4YEv5-11" style="edgeStyle=orthogonalEdgeStyle;rounded=0;orthogonalLoop=1;jettySize=auto;html=1;exitX=1;exitY=0.5;exitDx=0;exitDy=0;entryX=0;entryY=0.5;entryDx=0;entryDy=0;endArrow=none;endFill=0;" edge="1" parent="1" source="-b4267xsxqeD690nfUEc-52" target="-b4267xsxqeD690nfUEc-53">
          <mxGeometry relative="1" as="geometry" />
        </mxCell>
        <mxCell id="-b4267xsxqeD690nfUEc-52" value="" style="rounded=1;whiteSpace=wrap;html=1;fontSize=20;strokeColor=#666666;arcSize=14;strokeWidth=2;aspect=fixed;" vertex="1" parent="1">
          <mxGeometry x="880" y="680" width="140" height="50" as="geometry" />
        </mxCell>
        <mxCell id="-b4267xsxqeD690nfUEc-53" value="" style="rounded=1;whiteSpace=wrap;html=1;fontSize=20;strokeColor=#666666;arcSize=14;strokeWidth=2;aspect=fixed;" vertex="1" parent="1">
          <mxGeometry x="1050" y="680" width="140" height="50" as="geometry" />
        </mxCell>
        <mxCell id="-b4267xsxqeD690nfUEc-55" value="로그인" style="whiteSpace=wrap;html=1;fontSize=20;fillColor=#0050ef;strokeColor=#001DBC;fontColor=#ffffff;rounded=0;arcSize=14;strokeWidth=2;" vertex="1" parent="1">
          <mxGeometry x="770" y="100" width="120" height="60" as="geometry" />
        </mxCell>
        <mxCell id="-b4267xsxqeD690nfUEc-64" value="" style="whiteSpace=wrap;html=1;fontSize=20;rounded=0;arcSize=14;strokeWidth=2;" vertex="1" parent="1">
          <mxGeometry x="1340" y="105" width="140" height="50" as="geometry" />
        </mxCell>
        <mxCell id="-b4267xsxqeD690nfUEc-68" value="로그인을 해주세요." style="ellipse;whiteSpace=wrap;html=1;fontSize=20;rounded=0;arcSize=14;strokeWidth=2;" vertex="1" parent="1">
          <mxGeometry x="706" y="290" width="220" height="50" as="geometry" />
        </mxCell>
        <mxCell id="_WVnS3khFdctkwH4YEv5-3" value="&lt;span style=&quot;font-size: 15px;&quot;&gt;yes&lt;br&gt;&lt;/span&gt;" style="html=1;verticalAlign=bottom;startArrow=oval;startFill=1;endArrow=block;startSize=8;edgeStyle=elbowEdgeStyle;elbow=vertical;curved=0;rounded=0;" edge="1" parent="1" source="-b4267xsxqeD690nfUEc-55" target="-b4267xsxqeD690nfUEc-64">
          <mxGeometry width="60" relative="1" as="geometry">
            <mxPoint x="960" y="150" as="sourcePoint" />
            <mxPoint x="1020" y="150" as="targetPoint" />
          </mxGeometry>
        </mxCell>
        <mxCell id="_WVnS3khFdctkwH4YEv5-4" value="&lt;span style=&quot;font-size: 15px;&quot;&gt;no&lt;br&gt;&lt;/span&gt;" style="html=1;verticalAlign=bottom;startArrow=oval;startFill=1;endArrow=block;startSize=8;edgeStyle=elbowEdgeStyle;elbow=vertical;curved=0;rounded=0;entryX=0.56;entryY=-0.039;entryDx=0;entryDy=0;entryPerimeter=0;" edge="1" parent="1" source="-b4267xsxqeD690nfUEc-55" target="-b4267xsxqeD690nfUEc-68">
          <mxGeometry x="-0.0481" y="30" width="60" relative="1" as="geometry">
            <mxPoint x="960" y="260" as="sourcePoint" />
            <mxPoint x="1020" y="260" as="targetPoint" />
            <mxPoint y="-1" as="offset" />
          </mxGeometry>
        </mxCell>
        <mxCell id="_WVnS3khFdctkwH4YEv5-8" style="edgeStyle=orthogonalEdgeStyle;rounded=0;orthogonalLoop=1;jettySize=auto;html=1;exitX=0;exitY=0.5;exitDx=0;exitDy=0;endArrow=none;endFill=0;strokeWidth=4;" edge="1" parent="1" source="_WVnS3khFdctkwH4YEv5-7" target="-b4267xsxqeD690nfUEc-3">
          <mxGeometry relative="1" as="geometry" />
        </mxCell>
        <mxCell id="_WVnS3khFdctkwH4YEv5-7" value="이미지 검색" style="rounded=0;whiteSpace=wrap;html=1;absoluteArcSize=1;arcSize=14;strokeWidth=2;flipH=1;fontSize=20;" vertex="1" parent="1">
          <mxGeometry x="-190" y="190" width="140" height="50" as="geometry" />
        </mxCell>
        <mxCell id="_WVnS3khFdctkwH4YEv5-18" value="" style="edgeStyle=orthogonalEdgeStyle;rounded=0;orthogonalLoop=1;jettySize=auto;html=1;" edge="1" parent="1" source="_WVnS3khFdctkwH4YEv5-13" target="_WVnS3khFdctkwH4YEv5-17">
          <mxGeometry relative="1" as="geometry" />
        </mxCell>
        <mxCell id="_WVnS3khFdctkwH4YEv5-13" value="소개" style="rounded=0;whiteSpace=wrap;html=1;absoluteArcSize=1;arcSize=14;strokeWidth=2;flipH=1;fontSize=20;fillColor=#0050ef;strokeColor=#001DBC;fontColor=#ffffff;" vertex="1" parent="1">
          <mxGeometry x="-325" y="30" width="140" height="50" as="geometry" />
        </mxCell>
        <mxCell id="_WVnS3khFdctkwH4YEv5-20" value="" style="edgeStyle=orthogonalEdgeStyle;rounded=0;orthogonalLoop=1;jettySize=auto;html=1;endArrow=none;endFill=0;" edge="1" parent="1" source="_WVnS3khFdctkwH4YEv5-17" target="_WVnS3khFdctkwH4YEv5-19">
          <mxGeometry relative="1" as="geometry" />
        </mxCell>
        <mxCell id="_WVnS3khFdctkwH4YEv5-17" value="팀원소개" style="rounded=0;whiteSpace=wrap;html=1;absoluteArcSize=1;arcSize=14;strokeWidth=2;flipH=1;fontSize=20;" vertex="1" parent="1">
          <mxGeometry x="-325" y="105" width="140" height="50" as="geometry" />
        </mxCell>
        <mxCell id="_WVnS3khFdctkwH4YEv5-19" value="웹페이지 소개" style="rounded=0;whiteSpace=wrap;html=1;absoluteArcSize=1;arcSize=14;strokeWidth=2;flipH=1;fontSize=20;" vertex="1" parent="1">
          <mxGeometry x="-105" y="105" width="140" height="50" as="geometry" />
        </mxCell>
      </root>
    </mxGraphModel>
  </diagram>
  <diagram id="7ZQKc9_9Vp6cQrKimzZL" name="페이지-4">
    <mxGraphModel dx="1244" dy="2219" grid="1" gridSize="10" guides="1" tooltips="1" connect="1" arrows="1" fold="1" page="1" pageScale="1" pageWidth="827" pageHeight="1169" math="0" shadow="0">
      <root>
        <mxCell id="0" />
        <mxCell id="1" parent="0" />
        <mxCell id="AIrCfHAPnTssutggOQUe-1" style="edgeStyle=orthogonalEdgeStyle;rounded=0;orthogonalLoop=1;jettySize=auto;html=1;exitX=0.5;exitY=1;exitDx=0;exitDy=0;entryX=0.5;entryY=0;entryDx=0;entryDy=0;startArrow=ERone;startFill=0;endArrow=ERone;endFill=0;" edge="1" parent="1" source="AIrCfHAPnTssutggOQUe-2" target="AIrCfHAPnTssutggOQUe-11">
          <mxGeometry relative="1" as="geometry">
            <Array as="points">
              <mxPoint x="159" y="-600" />
              <mxPoint x="119" y="-600" />
            </Array>
          </mxGeometry>
        </mxCell>
        <mxCell id="AIrCfHAPnTssutggOQUe-2" value="direct_messages" style="swimlane;fontStyle=2;align=center;verticalAlign=top;childLayout=stackLayout;horizontal=1;startSize=26;horizontalStack=0;resizeParent=1;resizeLast=0;collapsible=1;marginBottom=0;rounded=0;shadow=0;strokeWidth=1;" vertex="1" parent="1">
          <mxGeometry x="79" y="-770" width="160" height="138" as="geometry">
            <mxRectangle x="230" y="140" width="160" height="26" as="alternateBounds" />
          </mxGeometry>
        </mxCell>
        <mxCell id="AIrCfHAPnTssutggOQUe-3" value="" style="line;html=1;strokeWidth=1;align=left;verticalAlign=middle;spacingTop=-1;spacingLeft=3;spacingRight=3;rotatable=0;labelPosition=right;points=[];portConstraint=eastwest;" vertex="1" parent="AIrCfHAPnTssutggOQUe-2">
          <mxGeometry y="26" width="160" height="34" as="geometry" />
        </mxCell>
        <mxCell id="AIrCfHAPnTssutggOQUe-4" value="ChatRoom" style="text;align=left;verticalAlign=top;spacingLeft=4;spacingRight=4;overflow=hidden;rotatable=0;points=[[0,0.5],[1,0.5]];portConstraint=eastwest;" vertex="1" parent="AIrCfHAPnTssutggOQUe-2">
          <mxGeometry y="60" width="160" height="26" as="geometry" />
        </mxCell>
        <mxCell id="AIrCfHAPnTssutggOQUe-5" value="Message" style="text;align=left;verticalAlign=top;spacingLeft=4;spacingRight=4;overflow=hidden;rotatable=0;points=[[0,0.5],[1,0.5]];portConstraint=eastwest;" vertex="1" parent="AIrCfHAPnTssutggOQUe-2">
          <mxGeometry y="86" width="160" height="26" as="geometry" />
        </mxCell>
        <mxCell id="AIrCfHAPnTssutggOQUe-6" value="common" style="swimlane;fontStyle=0;align=center;verticalAlign=top;childLayout=stackLayout;horizontal=1;startSize=26;horizontalStack=0;resizeParent=1;resizeLast=0;collapsible=1;marginBottom=0;rounded=0;shadow=0;strokeWidth=1;" vertex="1" parent="1">
          <mxGeometry x="349" y="-950" width="140" height="120" as="geometry">
            <mxRectangle x="130" y="380" width="160" height="26" as="alternateBounds" />
          </mxGeometry>
        </mxCell>
        <mxCell id="AIrCfHAPnTssutggOQUe-7" value="created_at" style="text;align=left;verticalAlign=top;spacingLeft=4;spacingRight=4;overflow=hidden;rotatable=0;points=[[0,0.5],[1,0.5]];portConstraint=eastwest;" vertex="1" parent="AIrCfHAPnTssutggOQUe-6">
          <mxGeometry y="26" width="140" height="26" as="geometry" />
        </mxCell>
        <mxCell id="AIrCfHAPnTssutggOQUe-8" value="updated_at" style="text;align=left;verticalAlign=top;spacingLeft=4;spacingRight=4;overflow=hidden;rotatable=0;points=[[0,0.5],[1,0.5]];portConstraint=eastwest;rounded=0;shadow=0;html=0;" vertex="1" parent="AIrCfHAPnTssutggOQUe-6">
          <mxGeometry y="52" width="140" height="26" as="geometry" />
        </mxCell>
        <mxCell id="AIrCfHAPnTssutggOQUe-9" value="" style="line;html=1;strokeWidth=1;align=left;verticalAlign=middle;spacingTop=-1;spacingLeft=3;spacingRight=3;rotatable=0;labelPosition=right;points=[];portConstraint=eastwest;" vertex="1" parent="AIrCfHAPnTssutggOQUe-6">
          <mxGeometry y="78" width="140" height="8" as="geometry" />
        </mxCell>
        <mxCell id="AIrCfHAPnTssutggOQUe-10" value="abstract" style="text;align=left;verticalAlign=top;spacingLeft=4;spacingRight=4;overflow=hidden;rotatable=0;points=[[0,0.5],[1,0.5]];portConstraint=eastwest;fontStyle=4" vertex="1" parent="AIrCfHAPnTssutggOQUe-6">
          <mxGeometry y="86" width="140" height="26" as="geometry" />
        </mxCell>
        <mxCell id="AIrCfHAPnTssutggOQUe-11" value="ChatRoom" style="swimlane;fontStyle=0;align=center;verticalAlign=top;childLayout=stackLayout;horizontal=1;startSize=26;horizontalStack=0;resizeParent=1;resizeLast=0;collapsible=1;marginBottom=0;rounded=0;shadow=0;strokeWidth=1;" vertex="1" parent="1">
          <mxGeometry x="39" y="-590" width="160" height="70" as="geometry">
            <mxRectangle x="340" y="380" width="170" height="26" as="alternateBounds" />
          </mxGeometry>
        </mxCell>
        <mxCell id="AIrCfHAPnTssutggOQUe-12" value="users" style="text;align=left;verticalAlign=top;spacingLeft=4;spacingRight=4;overflow=hidden;rotatable=0;points=[[0,0.5],[1,0.5]];portConstraint=eastwest;" vertex="1" parent="AIrCfHAPnTssutggOQUe-11">
          <mxGeometry y="26" width="160" height="26" as="geometry" />
        </mxCell>
        <mxCell id="AIrCfHAPnTssutggOQUe-13" value="" style="line;html=1;strokeWidth=1;align=left;verticalAlign=middle;spacingTop=-1;spacingLeft=3;spacingRight=3;rotatable=0;labelPosition=right;points=[];portConstraint=eastwest;" vertex="1" parent="AIrCfHAPnTssutggOQUe-11">
          <mxGeometry y="52" width="160" height="8" as="geometry" />
        </mxCell>
        <mxCell id="AIrCfHAPnTssutggOQUe-14" value="medicines" style="swimlane;fontStyle=0;align=center;verticalAlign=top;childLayout=stackLayout;horizontal=1;startSize=26;horizontalStack=0;resizeParent=1;resizeLast=0;collapsible=1;marginBottom=0;rounded=0;shadow=0;strokeWidth=1;" vertex="1" parent="1">
          <mxGeometry x="339" y="-568" width="140" height="198" as="geometry">
            <mxRectangle x="550" y="140" width="160" height="26" as="alternateBounds" />
          </mxGeometry>
        </mxCell>
        <mxCell id="AIrCfHAPnTssutggOQUe-15" value="name" style="text;align=left;verticalAlign=top;spacingLeft=4;spacingRight=4;overflow=hidden;rotatable=0;points=[[0,0.5],[1,0.5]];portConstraint=eastwest;" vertex="1" parent="AIrCfHAPnTssutggOQUe-14">
          <mxGeometry y="26" width="140" height="26" as="geometry" />
        </mxCell>
        <mxCell id="AIrCfHAPnTssutggOQUe-16" value="mdPircturePath" style="text;align=left;verticalAlign=top;spacingLeft=4;spacingRight=4;overflow=hidden;rotatable=0;points=[[0,0.5],[1,0.5]];portConstraint=eastwest;rounded=0;shadow=0;html=0;" vertex="1" parent="AIrCfHAPnTssutggOQUe-14">
          <mxGeometry y="52" width="140" height="26" as="geometry" />
        </mxCell>
        <mxCell id="AIrCfHAPnTssutggOQUe-17" value="basis" style="text;align=left;verticalAlign=top;spacingLeft=4;spacingRight=4;overflow=hidden;rotatable=0;points=[[0,0.5],[1,0.5]];portConstraint=eastwest;rounded=0;shadow=0;html=0;" vertex="1" parent="AIrCfHAPnTssutggOQUe-14">
          <mxGeometry y="78" width="140" height="26" as="geometry" />
        </mxCell>
        <mxCell id="AIrCfHAPnTssutggOQUe-18" value="effect" style="text;align=left;verticalAlign=top;spacingLeft=4;spacingRight=4;overflow=hidden;rotatable=0;points=[[0,0.5],[1,0.5]];portConstraint=eastwest;rounded=0;shadow=0;html=0;" vertex="1" parent="AIrCfHAPnTssutggOQUe-14">
          <mxGeometry y="104" width="140" height="26" as="geometry" />
        </mxCell>
        <mxCell id="AIrCfHAPnTssutggOQUe-19" value="caution" style="text;align=left;verticalAlign=top;spacingLeft=4;spacingRight=4;overflow=hidden;rotatable=0;points=[[0,0.5],[1,0.5]];portConstraint=eastwest;rounded=0;shadow=0;html=0;" vertex="1" parent="AIrCfHAPnTssutggOQUe-14">
          <mxGeometry y="130" width="140" height="26" as="geometry" />
        </mxCell>
        <mxCell id="AIrCfHAPnTssutggOQUe-20" value="cautionOtherMedicines" style="text;align=left;verticalAlign=top;spacingLeft=4;spacingRight=4;overflow=hidden;rotatable=0;points=[[0,0.5],[1,0.5]];portConstraint=eastwest;rounded=0;shadow=0;html=0;" vertex="1" parent="AIrCfHAPnTssutggOQUe-14">
          <mxGeometry y="156" width="140" height="26" as="geometry" />
        </mxCell>
        <mxCell id="AIrCfHAPnTssutggOQUe-21" value="" style="line;html=1;strokeWidth=1;align=left;verticalAlign=middle;spacingTop=-1;spacingLeft=3;spacingRight=3;rotatable=0;labelPosition=right;points=[];portConstraint=eastwest;" vertex="1" parent="AIrCfHAPnTssutggOQUe-14">
          <mxGeometry y="182" width="140" height="8" as="geometry" />
        </mxCell>
        <mxCell id="AIrCfHAPnTssutggOQUe-22" value="Message" style="swimlane;fontStyle=0;align=center;verticalAlign=top;childLayout=stackLayout;horizontal=1;startSize=26;horizontalStack=0;resizeParent=1;resizeLast=0;collapsible=1;marginBottom=0;rounded=0;shadow=0;strokeWidth=1;" vertex="1" parent="1">
          <mxGeometry x="149" y="-503" width="160" height="112" as="geometry">
            <mxRectangle x="340" y="380" width="170" height="26" as="alternateBounds" />
          </mxGeometry>
        </mxCell>
        <mxCell id="AIrCfHAPnTssutggOQUe-23" value="text" style="text;align=left;verticalAlign=top;spacingLeft=4;spacingRight=4;overflow=hidden;rotatable=0;points=[[0,0.5],[1,0.5]];portConstraint=eastwest;" vertex="1" parent="AIrCfHAPnTssutggOQUe-22">
          <mxGeometry y="26" width="160" height="26" as="geometry" />
        </mxCell>
        <mxCell id="AIrCfHAPnTssutggOQUe-24" value="user" style="text;align=left;verticalAlign=top;spacingLeft=4;spacingRight=4;overflow=hidden;rotatable=0;points=[[0,0.5],[1,0.5]];portConstraint=eastwest;" vertex="1" parent="AIrCfHAPnTssutggOQUe-22">
          <mxGeometry y="52" width="160" height="26" as="geometry" />
        </mxCell>
        <mxCell id="AIrCfHAPnTssutggOQUe-25" value="FK room" style="text;align=left;verticalAlign=top;spacingLeft=4;spacingRight=4;overflow=hidden;rotatable=0;points=[[0,0.5],[1,0.5]];portConstraint=eastwest;" vertex="1" parent="AIrCfHAPnTssutggOQUe-22">
          <mxGeometry y="78" width="160" height="26" as="geometry" />
        </mxCell>
        <mxCell id="AIrCfHAPnTssutggOQUe-26" value="" style="line;html=1;strokeWidth=1;align=left;verticalAlign=middle;spacingTop=-1;spacingLeft=3;spacingRight=3;rotatable=0;labelPosition=right;points=[];portConstraint=eastwest;" vertex="1" parent="AIrCfHAPnTssutggOQUe-22">
          <mxGeometry y="104" width="160" height="8" as="geometry" />
        </mxCell>
        <mxCell id="AIrCfHAPnTssutggOQUe-27" value="pharmacies" style="swimlane;fontStyle=0;align=center;verticalAlign=top;childLayout=stackLayout;horizontal=1;startSize=26;horizontalStack=0;resizeParent=1;resizeLast=0;collapsible=1;marginBottom=0;rounded=0;shadow=0;strokeWidth=1;" vertex="1" parent="1">
          <mxGeometry x="639" y="-970" width="160" height="190" as="geometry">
            <mxRectangle x="550" y="140" width="160" height="26" as="alternateBounds" />
          </mxGeometry>
        </mxCell>
        <mxCell id="AIrCfHAPnTssutggOQUe-28" value="title" style="text;align=left;verticalAlign=top;spacingLeft=4;spacingRight=4;overflow=hidden;rotatable=0;points=[[0,0.5],[1,0.5]];portConstraint=eastwest;" vertex="1" parent="AIrCfHAPnTssutggOQUe-27">
          <mxGeometry y="26" width="160" height="26" as="geometry" />
        </mxCell>
        <mxCell id="AIrCfHAPnTssutggOQUe-29" value="address" style="text;align=left;verticalAlign=top;spacingLeft=4;spacingRight=4;overflow=hidden;rotatable=0;points=[[0,0.5],[1,0.5]];portConstraint=eastwest;rounded=0;shadow=0;html=0;" vertex="1" parent="AIrCfHAPnTssutggOQUe-27">
          <mxGeometry y="52" width="160" height="26" as="geometry" />
        </mxCell>
        <mxCell id="AIrCfHAPnTssutggOQUe-30" value="callNumber1" style="text;align=left;verticalAlign=top;spacingLeft=4;spacingRight=4;overflow=hidden;rotatable=0;points=[[0,0.5],[1,0.5]];portConstraint=eastwest;rounded=0;shadow=0;html=0;" vertex="1" parent="AIrCfHAPnTssutggOQUe-27">
          <mxGeometry y="78" width="160" height="26" as="geometry" />
        </mxCell>
        <mxCell id="AIrCfHAPnTssutggOQUe-31" value="callNumber2" style="text;align=left;verticalAlign=top;spacingLeft=4;spacingRight=4;overflow=hidden;rotatable=0;points=[[0,0.5],[1,0.5]];portConstraint=eastwest;rounded=0;shadow=0;html=0;" vertex="1" parent="AIrCfHAPnTssutggOQUe-27">
          <mxGeometry y="104" width="160" height="26" as="geometry" />
        </mxCell>
        <mxCell id="AIrCfHAPnTssutggOQUe-32" value="coordinate_X" style="text;align=left;verticalAlign=top;spacingLeft=4;spacingRight=4;overflow=hidden;rotatable=0;points=[[0,0.5],[1,0.5]];portConstraint=eastwest;rounded=0;shadow=0;html=0;" vertex="1" parent="AIrCfHAPnTssutggOQUe-27">
          <mxGeometry y="130" width="160" height="26" as="geometry" />
        </mxCell>
        <mxCell id="AIrCfHAPnTssutggOQUe-33" value="coordinate_Y" style="text;align=left;verticalAlign=top;spacingLeft=4;spacingRight=4;overflow=hidden;rotatable=0;points=[[0,0.5],[1,0.5]];portConstraint=eastwest;rounded=0;shadow=0;html=0;" vertex="1" parent="AIrCfHAPnTssutggOQUe-27">
          <mxGeometry y="156" width="160" height="26" as="geometry" />
        </mxCell>
        <mxCell id="AIrCfHAPnTssutggOQUe-34" value="" style="line;html=1;strokeWidth=1;align=left;verticalAlign=middle;spacingTop=-1;spacingLeft=3;spacingRight=3;rotatable=0;labelPosition=right;points=[];portConstraint=eastwest;" vertex="1" parent="AIrCfHAPnTssutggOQUe-27">
          <mxGeometry y="182" width="160" height="8" as="geometry" />
        </mxCell>
        <mxCell id="AIrCfHAPnTssutggOQUe-35" value="reviews" style="swimlane;fontStyle=0;align=center;verticalAlign=top;childLayout=stackLayout;horizontal=1;startSize=26;horizontalStack=0;resizeParent=1;resizeLast=0;collapsible=1;marginBottom=0;rounded=0;shadow=0;strokeWidth=1;" vertex="1" parent="1">
          <mxGeometry x="639" y="-740" width="160" height="190" as="geometry">
            <mxRectangle x="550" y="140" width="160" height="26" as="alternateBounds" />
          </mxGeometry>
        </mxCell>
        <mxCell id="AIrCfHAPnTssutggOQUe-36" value="review_photo" style="text;align=left;verticalAlign=top;spacingLeft=4;spacingRight=4;overflow=hidden;rotatable=0;points=[[0,0.5],[1,0.5]];portConstraint=eastwest;" vertex="1" parent="AIrCfHAPnTssutggOQUe-35">
          <mxGeometry y="26" width="160" height="26" as="geometry" />
        </mxCell>
        <mxCell id="AIrCfHAPnTssutggOQUe-37" value="FK writer" style="text;align=left;verticalAlign=top;spacingLeft=4;spacingRight=4;overflow=hidden;rotatable=0;points=[[0,0.5],[1,0.5]];portConstraint=eastwest;rounded=0;shadow=0;html=0;" vertex="1" parent="AIrCfHAPnTssutggOQUe-35">
          <mxGeometry y="52" width="160" height="26" as="geometry" />
        </mxCell>
        <mxCell id="AIrCfHAPnTssutggOQUe-38" value="FK medicine" style="text;align=left;verticalAlign=top;spacingLeft=4;spacingRight=4;overflow=hidden;rotatable=0;points=[[0,0.5],[1,0.5]];portConstraint=eastwest;rounded=0;shadow=0;html=0;" vertex="1" parent="AIrCfHAPnTssutggOQUe-35">
          <mxGeometry y="78" width="160" height="26" as="geometry" />
        </mxCell>
        <mxCell id="AIrCfHAPnTssutggOQUe-39" value="views" style="text;align=left;verticalAlign=top;spacingLeft=4;spacingRight=4;overflow=hidden;rotatable=0;points=[[0,0.5],[1,0.5]];portConstraint=eastwest;rounded=0;shadow=0;html=0;" vertex="1" parent="AIrCfHAPnTssutggOQUe-35">
          <mxGeometry y="104" width="160" height="26" as="geometry" />
        </mxCell>
        <mxCell id="AIrCfHAPnTssutggOQUe-40" value="title" style="text;align=left;verticalAlign=top;spacingLeft=4;spacingRight=4;overflow=hidden;rotatable=0;points=[[0,0.5],[1,0.5]];portConstraint=eastwest;rounded=0;shadow=0;html=0;" vertex="1" parent="AIrCfHAPnTssutggOQUe-35">
          <mxGeometry y="130" width="160" height="26" as="geometry" />
        </mxCell>
        <mxCell id="AIrCfHAPnTssutggOQUe-41" value="content" style="text;align=left;verticalAlign=top;spacingLeft=4;spacingRight=4;overflow=hidden;rotatable=0;points=[[0,0.5],[1,0.5]];portConstraint=eastwest;rounded=0;shadow=0;html=0;" vertex="1" parent="AIrCfHAPnTssutggOQUe-35">
          <mxGeometry y="156" width="160" height="22" as="geometry" />
        </mxCell>
        <mxCell id="AIrCfHAPnTssutggOQUe-42" value="" style="line;html=1;strokeWidth=1;align=left;verticalAlign=middle;spacingTop=-1;spacingLeft=3;spacingRight=3;rotatable=0;labelPosition=right;points=[];portConstraint=eastwest;" vertex="1" parent="AIrCfHAPnTssutggOQUe-35">
          <mxGeometry y="178" width="160" height="8" as="geometry" />
        </mxCell>
        <mxCell id="AIrCfHAPnTssutggOQUe-43" value="users" style="swimlane;fontStyle=0;align=center;verticalAlign=top;childLayout=stackLayout;horizontal=1;startSize=26;horizontalStack=0;resizeParent=1;resizeLast=0;collapsible=1;marginBottom=0;rounded=0;shadow=0;strokeWidth=1;" vertex="1" parent="1">
          <mxGeometry x="349" y="-770" width="140" height="150" as="geometry">
            <mxRectangle x="550" y="140" width="160" height="26" as="alternateBounds" />
          </mxGeometry>
        </mxCell>
        <mxCell id="AIrCfHAPnTssutggOQUe-44" value="profile_photo" style="text;align=left;verticalAlign=top;spacingLeft=4;spacingRight=4;overflow=hidden;rotatable=0;points=[[0,0.5],[1,0.5]];portConstraint=eastwest;" vertex="1" parent="AIrCfHAPnTssutggOQUe-43">
          <mxGeometry y="26" width="140" height="26" as="geometry" />
        </mxCell>
        <mxCell id="AIrCfHAPnTssutggOQUe-45" value="name" style="text;align=left;verticalAlign=top;spacingLeft=4;spacingRight=4;overflow=hidden;rotatable=0;points=[[0,0.5],[1,0.5]];portConstraint=eastwest;rounded=0;shadow=0;html=0;" vertex="1" parent="AIrCfHAPnTssutggOQUe-43">
          <mxGeometry y="52" width="140" height="26" as="geometry" />
        </mxCell>
        <mxCell id="AIrCfHAPnTssutggOQUe-46" value="username" style="text;align=left;verticalAlign=top;spacingLeft=4;spacingRight=4;overflow=hidden;rotatable=0;points=[[0,0.5],[1,0.5]];portConstraint=eastwest;rounded=0;shadow=0;html=0;" vertex="1" parent="AIrCfHAPnTssutggOQUe-43">
          <mxGeometry y="78" width="140" height="26" as="geometry" />
        </mxCell>
        <mxCell id="AIrCfHAPnTssutggOQUe-47" value="email" style="text;align=left;verticalAlign=top;spacingLeft=4;spacingRight=4;overflow=hidden;rotatable=0;points=[[0,0.5],[1,0.5]];portConstraint=eastwest;rounded=0;shadow=0;html=0;" vertex="1" parent="AIrCfHAPnTssutggOQUe-43">
          <mxGeometry y="104" width="140" height="26" as="geometry" />
        </mxCell>
        <mxCell id="AIrCfHAPnTssutggOQUe-48" value="" style="line;html=1;strokeWidth=1;align=left;verticalAlign=middle;spacingTop=-1;spacingLeft=3;spacingRight=3;rotatable=0;labelPosition=right;points=[];portConstraint=eastwest;" vertex="1" parent="AIrCfHAPnTssutggOQUe-43">
          <mxGeometry y="130" width="140" height="8" as="geometry" />
        </mxCell>
        <mxCell id="AIrCfHAPnTssutggOQUe-49" value="" style="edgeStyle=none;orthogonalLoop=1;jettySize=auto;html=1;rounded=0;endArrow=ERoneToMany;endFill=0;entryX=0;entryY=0.5;entryDx=0;entryDy=0;exitX=1;exitY=0.5;exitDx=0;exitDy=0;startArrow=ERone;startFill=0;" edge="1" parent="1" source="AIrCfHAPnTssutggOQUe-45" target="AIrCfHAPnTssutggOQUe-37">
          <mxGeometry width="80" relative="1" as="geometry">
            <mxPoint x="439" y="-675" as="sourcePoint" />
            <mxPoint x="559" y="-650" as="targetPoint" />
            <Array as="points">
              <mxPoint x="519" y="-705" />
              <mxPoint x="519" y="-675" />
            </Array>
          </mxGeometry>
        </mxCell>
        <mxCell id="AIrCfHAPnTssutggOQUe-50" value="" style="edgeStyle=none;orthogonalLoop=1;jettySize=auto;html=1;rounded=0;endArrow=ERoneToMany;endFill=0;exitX=1;exitY=0.5;exitDx=0;exitDy=0;entryX=0;entryY=0.5;entryDx=0;entryDy=0;startArrow=ERone;startFill=0;" edge="1" parent="1" source="AIrCfHAPnTssutggOQUe-15" target="AIrCfHAPnTssutggOQUe-38">
          <mxGeometry width="80" relative="1" as="geometry">
            <mxPoint x="429" y="-460.5" as="sourcePoint" />
            <mxPoint x="559" y="-460.5" as="targetPoint" />
            <Array as="points">
              <mxPoint x="599" y="-529" />
              <mxPoint x="599" y="-649" />
            </Array>
          </mxGeometry>
        </mxCell>
        <mxCell id="AIrCfHAPnTssutggOQUe-51" value="" style="edgeStyle=none;orthogonalLoop=1;jettySize=auto;html=1;rounded=0;endArrow=ERoneToMany;endFill=0;entryX=1;entryY=0.5;entryDx=0;entryDy=0;exitX=0;exitY=0.5;exitDx=0;exitDy=0;startArrow=ERoneToMany;startFill=0;" edge="1" parent="1" source="AIrCfHAPnTssutggOQUe-45" target="AIrCfHAPnTssutggOQUe-12">
          <mxGeometry width="80" relative="1" as="geometry">
            <mxPoint x="439" y="-665" as="sourcePoint" />
            <mxPoint x="569" y="-665" as="targetPoint" />
            <Array as="points">
              <mxPoint x="269" y="-705" />
              <mxPoint x="269" y="-550" />
            </Array>
          </mxGeometry>
        </mxCell>
        <mxCell id="AIrCfHAPnTssutggOQUe-52" value="" style="edgeStyle=none;orthogonalLoop=1;jettySize=auto;html=1;rounded=0;endArrow=ERone;endFill=0;entryX=0.5;entryY=0;entryDx=0;entryDy=0;exitX=0.5;exitY=0;exitDx=0;exitDy=0;startArrow=ERone;startFill=0;" edge="1" parent="1" source="AIrCfHAPnTssutggOQUe-6" target="AIrCfHAPnTssutggOQUe-27">
          <mxGeometry width="80" relative="1" as="geometry">
            <mxPoint x="429" y="-920" as="sourcePoint" />
            <mxPoint x="559" y="-920" as="targetPoint" />
            <Array as="points">
              <mxPoint x="419" y="-1020" />
              <mxPoint x="529" y="-1020" />
              <mxPoint x="719" y="-1020" />
            </Array>
          </mxGeometry>
        </mxCell>
        <mxCell id="AIrCfHAPnTssutggOQUe-53" value="" style="edgeStyle=none;orthogonalLoop=1;jettySize=auto;html=1;rounded=0;endArrow=ERone;endFill=0;startArrow=ERone;startFill=0;entryX=0;entryY=0.5;entryDx=0;entryDy=0;" edge="1" parent="1" target="AIrCfHAPnTssutggOQUe-36">
          <mxGeometry width="80" relative="1" as="geometry">
            <mxPoint x="419" y="-950" as="sourcePoint" />
            <mxPoint x="499" y="-710" as="targetPoint" />
            <Array as="points">
              <mxPoint x="419" y="-1020" />
              <mxPoint x="529" y="-1020" />
              <mxPoint x="529" y="-860" />
              <mxPoint x="529" y="-701" />
            </Array>
          </mxGeometry>
        </mxCell>
        <mxCell id="AIrCfHAPnTssutggOQUe-54" value="" style="edgeStyle=none;orthogonalLoop=1;jettySize=auto;html=1;rounded=0;endArrow=ERone;endFill=0;startArrow=ERone;startFill=0;exitX=0.5;exitY=0;exitDx=0;exitDy=0;entryX=0.5;entryY=0;entryDx=0;entryDy=0;" edge="1" parent="1" source="AIrCfHAPnTssutggOQUe-6" target="AIrCfHAPnTssutggOQUe-14">
          <mxGeometry width="80" relative="1" as="geometry">
            <mxPoint x="349" y="-960" as="sourcePoint" />
            <mxPoint x="359" y="-570" as="targetPoint" />
            <Array as="points">
              <mxPoint x="419" y="-1020" />
              <mxPoint x="529" y="-1020" />
              <mxPoint x="529" y="-580" />
              <mxPoint x="449" y="-580" />
              <mxPoint x="409" y="-580" />
            </Array>
          </mxGeometry>
        </mxCell>
        <mxCell id="AIrCfHAPnTssutggOQUe-55" value="" style="edgeStyle=none;orthogonalLoop=1;jettySize=auto;html=1;rounded=0;endArrow=ERone;endFill=0;exitX=0.5;exitY=0;exitDx=0;exitDy=0;startArrow=ERone;startFill=0;entryX=0.558;entryY=0.003;entryDx=0;entryDy=0;entryPerimeter=0;" edge="1" parent="1" source="AIrCfHAPnTssutggOQUe-6" target="AIrCfHAPnTssutggOQUe-2">
          <mxGeometry width="80" relative="1" as="geometry">
            <mxPoint x="169" y="-899" as="sourcePoint" />
            <mxPoint x="169" y="-780" as="targetPoint" />
            <Array as="points">
              <mxPoint x="419" y="-1020" />
              <mxPoint x="199" y="-1020" />
              <mxPoint x="169" y="-1020" />
              <mxPoint x="169" y="-870" />
            </Array>
          </mxGeometry>
        </mxCell>
        <mxCell id="AIrCfHAPnTssutggOQUe-56" value="" style="edgeStyle=none;orthogonalLoop=1;jettySize=auto;html=1;rounded=0;endArrow=ERoneToMany;endFill=0;entryX=0;entryY=0.5;entryDx=0;entryDy=0;startArrow=ERone;startFill=0;exitX=0;exitY=0.5;exitDx=0;exitDy=0;" edge="1" parent="1" source="AIrCfHAPnTssutggOQUe-12" target="AIrCfHAPnTssutggOQUe-25">
          <mxGeometry width="80" relative="1" as="geometry">
            <mxPoint x="69" y="-690" as="sourcePoint" />
            <mxPoint x="249" y="-541" as="targetPoint" />
            <Array as="points">
              <mxPoint x="29" y="-550" />
              <mxPoint x="29" y="-412" />
            </Array>
          </mxGeometry>
        </mxCell>
        <mxCell id="AIrCfHAPnTssutggOQUe-57" value="" style="edgeStyle=none;orthogonalLoop=1;jettySize=auto;html=1;rounded=0;endArrow=ERoneToMany;endFill=0;entryX=1;entryY=0.5;entryDx=0;entryDy=0;exitX=0;exitY=0.5;exitDx=0;exitDy=0;startArrow=ERoneToMany;startFill=0;" edge="1" parent="1" source="AIrCfHAPnTssutggOQUe-45" target="AIrCfHAPnTssutggOQUe-24">
          <mxGeometry width="80" relative="1" as="geometry">
            <mxPoint x="299" y="-665" as="sourcePoint" />
            <mxPoint x="249" y="-541" as="targetPoint" />
            <Array as="points">
              <mxPoint x="319" y="-705" />
              <mxPoint x="319" y="-440" />
            </Array>
          </mxGeometry>
        </mxCell>
        <mxCell id="AIrCfHAPnTssutggOQUe-58" style="edgeStyle=orthogonalEdgeStyle;rounded=0;orthogonalLoop=1;jettySize=auto;html=1;exitX=0.5;exitY=1;exitDx=0;exitDy=0;entryX=0.5;entryY=0;entryDx=0;entryDy=0;endArrow=ERone;endFill=0;startArrow=ERone;startFill=0;" edge="1" parent="1" source="AIrCfHAPnTssutggOQUe-2" target="AIrCfHAPnTssutggOQUe-22">
          <mxGeometry relative="1" as="geometry">
            <mxPoint x="169" y="-592" as="sourcePoint" />
            <mxPoint x="129" y="-580" as="targetPoint" />
            <Array as="points">
              <mxPoint x="159" y="-600" />
              <mxPoint x="229" y="-600" />
            </Array>
          </mxGeometry>
        </mxCell>
      </root>
    </mxGraphModel>
  </diagram>
</mxfile>
